<svg id="visual" viewBox="0 0 900 600" width="900" height="600" xmlns="http://www.w3.org/2000/svg" xmlns:xlink="http://www.w3.org/1999/xlink" version="1.1"><rect x="0" y="0" width="900" height="600" fill="#FAFBFC"></rect><defs><linearGradient id="grad1_0" x1="33.3%" y1="0%" x2="100%" y2="100%"><stop offset="20%" stop-color="#fafbfc" stop-opacity="1"></stop><stop offset="80%" stop-color="#fafbfc" stop-opacity="1"></stop></linearGradient></defs><defs><linearGradient id="grad2_0" x1="0%" y1="0%" x2="66.7%" y2="100%"><stop offset="20%" stop-color="#fafbfc" stop-opacity="1"></stop><stop offset="80%" stop-color="#fafbfc" stop-opacity="1"></stop></linearGradient></defs><g transform="translate(900, 0)"><path d="M0 135.2C-7.9 127.1 -15.8 119 -22.6 113.8C-29.5 108.6 -35.3 106.3 -44.8 108.1C-54.3 109.9 -67.5 115.7 -75.1 112.4C-82.8 109.2 -84.8 96.8 -87.7 87.7C-90.6 78.5 -94.2 72.6 -100.6 67.2C-107 61.8 -116.1 57 -121 50.1C-126 43.2 -126.8 34.3 -128.5 25.6C-130.2 16.9 -132.7 8.4 -135.2 0L0 0Z" fill="#FF9752"></path></g><g transform="translate(0, 600)"><path d="M0 -135.2C9.7 -137 19.4 -138.8 26.4 -132.6C33.4 -126.4 37.7 -112.2 43.6 -105.3C49.5 -98.4 57 -98.8 65.6 -98.1C74.1 -97.5 83.9 -95.8 91.2 -91.2C98.6 -86.6 103.6 -79.1 105.6 -70.6C107.6 -62.1 106.6 -52.6 108.1 -44.8C109.6 -37 113.7 -30.8 118.7 -23.6C123.6 -16.4 129.4 -8.2 135.2 0L0 0Z" fill="#FF9752"></path></g></svg>