<svg id="visual" viewBox="0 0 900 600" width="900" height="600" xmlns="http://www.w3.org/2000/svg" xmlns:xlink="http://www.w3.org/1999/xlink" version="1.1"><path d="M0 49L13.7 47C27.3 45 54.7 41 82 44C109.3 47 136.7 57 163.8 61C191 65 218 63 245.2 62C272.3 61 299.7 61 327 65C354.3 69 381.7 77 409 79C436.3 81 463.7 77 491 73C518.3 69 545.7 65 573 62C600.3 59 627.7 57 654.8 58C682 59 709 63 736.2 69C763.3 75 790.7 83 818 85C845.3 87 872.7 83 886.3 81L900 79L900 0L886.3 0C872.7 0 845.3 0 818 0C790.7 0 763.3 0 736.2 0C709 0 682 0 654.8 0C627.7 0 600.3 0 573 0C545.7 0 518.3 0 491 0C463.7 0 436.3 0 409 0C381.7 0 354.3 0 327 0C299.7 0 272.3 0 245.2 0C218 0 191 0 163.8 0C136.7 0 109.3 0 82 0C54.7 0 27.3 0 13.7 0L0 0Z" fill="#f9d1bd"></path><path d="M0 163L13.7 168C27.3 173 54.7 183 82 183C109.3 183 136.7 173 163.8 166C191 159 218 155 245.2 158C272.3 161 299.7 171 327 176C354.3 181 381.7 181 409 182C436.3 183 463.7 185 491 187C518.3 189 545.7 191 573 178C600.3 165 627.7 137 654.8 136C682 135 709 161 736.2 177C763.3 193 790.7 199 818 205C845.3 211 872.7 217 886.3 220L900 223L900 77L886.3 79C872.7 81 845.3 85 818 83C790.7 81 763.3 73 736.2 67C709 61 682 57 654.8 56C627.7 55 600.3 57 573 60C545.7 63 518.3 67 491 71C463.7 75 436.3 79 409 77C381.7 75 354.3 67 327 63C299.7 59 272.3 59 245.2 60C218 61 191 63 163.8 59C136.7 55 109.3 45 82 42C54.7 39 27.3 43 13.7 45L0 47Z" fill="#f5c7ad"></path><path d="M0 277L13.7 277C27.3 277 54.7 277 82 278C109.3 279 136.7 281 163.8 274C191 267 218 251 245.2 268C272.3 285 299.7 335 327 349C354.3 363 381.7 341 409 344C436.3 347 463.7 375 491 385C518.3 395 545.7 387 573 380C600.3 373 627.7 367 654.8 367C682 367 709 373 736.2 385C763.3 397 790.7 415 818 420C845.3 425 872.7 417 886.3 413L900 409L900 221L886.3 218C872.7 215 845.3 209 818 203C790.7 197 763.3 191 736.2 175C709 159 682 133 654.8 134C627.7 135 600.3 163 573 176C545.7 189 518.3 187 491 185C463.7 183 436.3 181 409 180C381.7 179 354.3 179 327 174C299.7 169 272.3 159 245.2 156C218 153 191 157 163.8 164C136.7 171 109.3 181 82 181C54.7 181 27.3 171 13.7 166L0 161Z" fill="#f1be9d"></path><path d="M0 403L13.7 394C27.3 385 54.7 367 82 360C109.3 353 136.7 357 163.8 355C191 353 218 345 245.2 361C272.3 377 299.7 417 327 432C354.3 447 381.7 437 409 440C436.3 443 463.7 459 491 462C518.3 465 545.7 455 573 449C600.3 443 627.7 441 654.8 438C682 435 709 431 736.2 440C763.3 449 790.7 471 818 486C845.3 501 872.7 509 886.3 513L900 517L900 407L886.3 411C872.7 415 845.3 423 818 418C790.7 413 763.3 395 736.2 383C709 371 682 365 654.8 365C627.7 365 600.3 371 573 378C545.7 385 518.3 393 491 383C463.7 373 436.3 345 409 342C381.7 339 354.3 361 327 347C299.7 333 272.3 283 245.2 266C218 249 191 265 163.8 272C136.7 279 109.3 277 82 276C54.7 275 27.3 275 13.7 275L0 275Z" fill="#e7ac86"></path><path d="M0 601L13.7 601C27.3 601 54.7 601 82 601C109.3 601 136.7 601 163.8 601C191 601 218 601 245.2 601C272.3 601 299.7 601 327 601C354.3 601 381.7 601 409 601C436.3 601 463.7 601 491 601C518.3 601 545.7 601 573 601C600.3 601 627.7 601 654.8 601C682 601 709 601 736.2 601C763.3 601 790.7 601 818 601C845.3 601 872.7 601 886.3 601L900 601L900 515L886.3 511C872.7 507 845.3 499 818 484C790.7 469 763.3 447 736.2 438C709 429 682 433 654.8 436C627.7 439 600.3 441 573 447C545.7 453 518.3 463 491 460C463.7 457 436.3 441 409 438C381.7 435 354.3 445 327 430C299.7 415 272.3 375 245.2 359C218 343 191 351 163.8 353C136.7 355 109.3 351 82 358C54.7 365 27.3 383 13.7 392L0 401Z" fill="#dc9a70"></path></svg>