<svg id="visual" viewBox="0 0 900 600" width="900" height="600" xmlns="http://www.w3.org/2000/svg" xmlns:xlink="http://www.w3.org/1999/xlink" version="1.1"><path d="M0 360L21.5 368.3C43 376.7 86 393.3 128.8 393.8C171.7 394.3 214.3 378.7 257.2 372.3C300 366 343 369 385.8 379.7C428.7 390.3 471.3 408.7 514.2 415.2C557 421.7 600 416.3 642.8 417.8C685.7 419.3 728.3 427.7 771.2 432.7C814 437.7 857 439.3 878.5 440.2L900 441L900 601L878.5 601C857 601 814 601 771.2 601C728.3 601 685.7 601 642.8 601C600 601 557 601 514.2 601C471.3 601 428.7 601 385.8 601C343 601 300 601 257.2 601C214.3 601 171.7 601 128.8 601C86 601 43 601 21.5 601L0 601Z" fill="#f1be9d"></path><path d="M0 454L21.5 450C43 446 86 438 128.8 435.2C171.7 432.3 214.3 434.7 257.2 437.7C300 440.7 343 444.3 385.8 441.8C428.7 439.3 471.3 430.7 514.2 433.2C557 435.7 600 449.3 642.8 456C685.7 462.7 728.3 462.3 771.2 452.3C814 442.3 857 422.7 878.5 412.8L900 403L900 601L878.5 601C857 601 814 601 771.2 601C728.3 601 685.7 601 642.8 601C600 601 557 601 514.2 601C471.3 601 428.7 601 385.8 601C343 601 300 601 257.2 601C214.3 601 171.7 601 128.8 601C86 601 43 601 21.5 601L0 601Z" fill="#f3a97c"></path><path d="M0 466L21.5 471C43 476 86 486 128.8 487.8C171.7 489.7 214.3 483.3 257.2 479.2C300 475 343 473 385.8 472C428.7 471 471.3 471 514.2 476C557 481 600 491 642.8 493.7C685.7 496.3 728.3 491.7 771.2 491.2C814 490.7 857 494.3 878.5 496.2L900 498L900 601L878.5 601C857 601 814 601 771.2 601C728.3 601 685.7 601 642.8 601C600 601 557 601 514.2 601C471.3 601 428.7 601 385.8 601C343 601 300 601 257.2 601C214.3 601 171.7 601 128.8 601C86 601 43 601 21.5 601L0 601Z" fill="#f3925d"></path><path d="M0 500L21.5 497.2C43 494.3 86 488.7 128.8 490.8C171.7 493 214.3 503 257.2 505.3C300 507.7 343 502.3 385.8 498.2C428.7 494 471.3 491 514.2 489C557 487 600 486 642.8 491.5C685.7 497 728.3 509 771.2 508.5C814 508 857 495 878.5 488.5L900 482L900 601L878.5 601C857 601 814 601 771.2 601C728.3 601 685.7 601 642.8 601C600 601 557 601 514.2 601C471.3 601 428.7 601 385.8 601C343 601 300 601 257.2 601C214.3 601 171.7 601 128.8 601C86 601 43 601 21.5 601L0 601Z" fill="#f27940"></path><path d="M0 528L21.5 532C43 536 86 544 128.8 547.8C171.7 551.7 214.3 551.3 257.2 550.7C300 550 343 549 385.8 548.5C428.7 548 471.3 548 514.2 546.3C557 544.7 600 541.3 642.8 544C685.7 546.7 728.3 555.3 771.2 560.7C814 566 857 568 878.5 569L900 570L900 601L878.5 601C857 601 814 601 771.2 601C728.3 601 685.7 601 642.8 601C600 601 557 601 514.2 601C471.3 601 428.7 601 385.8 601C343 601 300 601 257.2 601C214.3 601 171.7 601 128.8 601C86 601 43 601 21.5 601L0 601Z" fill="#f15d23"></path></svg>