<svg xmlns="http://www.w3.org/2000/svg" width="202" height="50" viewBox="0 0 202 50" fill="none">
    <path d="M201 25C201 27.8751 198.62 30.9055 193.558 33.8681C188.565 36.7898 181.274 39.4553 172.178 41.707C153.999 46.2065 128.834 49 101 49C73.1662 49 48.0007 46.2065 29.8225 41.707C20.7257 39.4553 13.4347 36.7898 8.44216 33.8681C3.37978 30.9055 1 27.8751 1 25C1 22.1249 3.37978 19.0945 8.44216 16.1319C13.4347 13.2102 20.7257 10.5447 29.8225 8.29304C48.0007 3.79349 73.1662 1 101 1C128.834 1 153.999 3.79349 172.178 8.29304C181.274 10.5447 188.565 13.2102 193.558 16.1319C198.62 19.0945 201 22.1249 201 25Z" stroke="#F15D23" stroke-width="2"/>
</svg>