<svg xmlns="http://www.w3.org/2000/svg" width="40" height="40" viewBox="0 0 40 40" fill="none">
  <g clip-path="url(#clip0_1_533)">
    <path d="M40 25V40H20V25H25V20H35V25H40ZM27.5 25H32.5V22.5H27.5V25ZM37.5 32.5H35V35H32.5V32.5H27.5V35H25V32.5H22.5V37.5H37.5V32.5ZM37.5 27.5H22.5V30H37.5V27.5ZM30.5664 17.5C29.8633 16.7057 29.0299 16.0938 28.0664 15.6641C27.1029 15.2344 26.0807 15.013 25 15C23.9583 15 22.9883 15.1953 22.0898 15.5859C21.1914 15.9766 20.3971 16.5104 19.707 17.1875C19.0169 17.8646 18.4766 18.6654 18.0859 19.5898C17.6953 20.5143 17.5 21.4844 17.5 22.5C17.5 23.6979 17.2331 24.8242 16.6992 25.8789C16.1654 26.9336 15.4102 27.819 14.4336 28.5352C15.0195 28.8346 15.5664 29.1797 16.0742 29.5703C16.582 29.9609 17.0573 30.4036 17.5 30.8984V37.5C17.5 36.4714 17.3047 35.5013 16.9141 34.5898C16.5234 33.6784 15.9896 32.8841 15.3125 32.207C14.6354 31.5299 13.8346 30.9896 12.9102 30.5859C11.9857 30.1823 11.0156 29.987 10 30C8.95833 30 7.98828 30.1953 7.08984 30.5859C6.19141 30.9766 5.39714 31.5104 4.70703 32.1875C4.01693 32.8646 3.47656 33.6654 3.08594 34.5898C2.69531 35.5143 2.5 36.4844 2.5 37.5H0C0 36.5495 0.130208 35.6315 0.390625 34.7461C0.651042 33.8607 1.02214 33.0208 1.50391 32.2266C1.98568 31.4323 2.57161 30.7292 3.26172 30.1172C3.95182 29.5052 4.72005 28.9779 5.56641 28.5352C4.60286 27.832 3.85417 26.9531 3.32031 25.8984C2.78646 24.8438 2.51302 23.7109 2.5 22.5C2.5 21.4714 2.69531 20.5013 3.08594 19.5898C3.47656 18.6784 4.01042 17.8841 4.6875 17.207C5.36458 16.5299 6.15885 15.9896 7.07031 15.5859C7.98177 15.1823 8.95833 14.987 10 15C11.1979 15 12.3242 15.2669 13.3789 15.8008C14.4336 16.3346 15.319 17.0898 16.0352 18.0664C16.5299 17.0898 17.1615 16.2174 17.9297 15.4492C18.6979 14.681 19.5768 14.043 20.5664 13.5352C19.6029 12.832 18.8542 11.9531 18.3203 10.8984C17.7865 9.84375 17.513 8.71094 17.5 7.5C17.5 6.47135 17.6953 5.5013 18.0859 4.58984C18.4766 3.67839 19.0104 2.88411 19.6875 2.20703C20.3646 1.52995 21.1589 0.989583 22.0703 0.585938C22.9818 0.182292 23.9583 -0.0130208 25 0C26.0286 0 26.9987 0.195312 27.9102 0.585938C28.8216 0.976562 29.6159 1.51042 30.293 2.1875C30.9701 2.86458 31.5104 3.66536 31.9141 4.58984C32.3177 5.51432 32.513 6.48438 32.5 7.5C32.5 8.69792 32.2331 9.82422 31.6992 10.8789C31.1654 11.9336 30.4102 12.819 29.4336 13.5352C30.319 13.9779 31.1198 14.5312 31.8359 15.1953C32.5521 15.8594 33.1576 16.6276 33.6523 17.5H30.5664ZM10 27.5C10.6901 27.5 11.3346 27.3698 11.9336 27.1094C12.5326 26.849 13.0664 26.4909 13.5352 26.0352C14.0039 25.5794 14.362 25.0521 14.6094 24.4531C14.8568 23.8542 14.987 23.2031 15 22.5C15 21.8099 14.8698 21.1654 14.6094 20.5664C14.349 19.9674 13.9909 19.4336 13.5352 18.9648C13.0794 18.4961 12.5521 18.138 11.9531 17.8906C11.3542 17.6432 10.7031 17.513 10 17.5C9.3099 17.5 8.66536 17.6302 8.06641 17.8906C7.46745 18.151 6.93359 18.5091 6.46484 18.9648C5.99609 19.4206 5.63802 19.9479 5.39062 20.5469C5.14323 21.1458 5.01302 21.7969 5 22.5C5 23.1901 5.13021 23.8346 5.39062 24.4336C5.65104 25.0326 6.00911 25.5664 6.46484 26.0352C6.92057 26.5039 7.44792 26.862 8.04688 27.1094C8.64583 27.3568 9.29688 27.487 10 27.5ZM20 7.5C20 8.1901 20.1302 8.83464 20.3906 9.43359C20.651 10.0326 21.0091 10.5664 21.4648 11.0352C21.9206 11.5039 22.4479 11.862 23.0469 12.1094C23.6458 12.3568 24.2969 12.487 25 12.5C25.6901 12.5 26.3346 12.3698 26.9336 12.1094C27.5326 11.849 28.0664 11.4909 28.5352 11.0352C29.0039 10.5794 29.362 10.0521 29.6094 9.45312C29.8568 8.85417 29.987 8.20312 30 7.5C30 6.8099 29.8698 6.16536 29.6094 5.56641C29.349 4.96745 28.9909 4.43359 28.5352 3.96484C28.0794 3.49609 27.5521 3.13802 26.9531 2.89062C26.3542 2.64323 25.7031 2.51302 25 2.5C24.3099 2.5 23.6654 2.63021 23.0664 2.89062C22.4674 3.15104 21.9336 3.50911 21.4648 3.96484C20.9961 4.42057 20.638 4.94792 20.3906 5.54688C20.1432 6.14583 20.013 6.79688 20 7.5Z" fill="#45C491"/>
  </g>
  <defs>
    <clipPath id="clip0_1_533">
      <rect width="40" height="40" fill="white"/>
    </clipPath>
  </defs>
</svg>