<svg xmlns="http://www.w3.org/2000/svg" width="40" height="40" viewBox="0 0 40 40" fill="none">
  <path d="M18.3333 30.8333C18.3333 30.1944 18.1178 29.5628 17.6867 28.9383C17.2556 28.3139 16.7767 27.6611 16.25 26.98C15.7222 26.2989 15.2428 25.5906 14.8117 24.855C14.3806 24.1194 14.1656 23.3344 14.1667 22.5C14.1667 20.8889 14.7361 19.5139 15.875 18.375C17.0139 17.2361 18.3889 16.6667 20 16.6667C21.6111 16.6667 22.9861 17.2361 24.125 18.375C25.2639 19.5139 25.8333 20.8889 25.8333 22.5C25.8333 23.3333 25.6178 24.1183 25.1867 24.855C24.7556 25.5917 24.2767 26.2994 23.75 26.9783C23.2222 27.6594 22.7428 28.3122 22.3117 28.9367C21.8806 29.5611 21.6656 30.1933 21.6667 30.8333H18.3333ZM20 35C19.5278 35 19.1317 34.84 18.8117 34.52C18.4917 34.2 18.3322 33.8044 18.3333 33.3333V32.5H21.6667V33.3333C21.6667 33.8056 21.5067 34.2017 21.1867 34.5217C20.8667 34.8417 20.4711 35.0011 20 35ZM30 30C29.75 29.75 29.6039 29.4306 29.5617 29.0417C29.5194 28.6528 29.61 28.3056 29.8333 28C30.4167 27.0833 30.8683 26.09 31.1883 25.02C31.5083 23.95 31.6678 22.8322 31.6667 21.6667C31.6667 20.1389 31.3956 18.7011 30.8533 17.3533C30.3111 16.0056 29.5544 14.8044 28.5833 13.75C28.2778 13.3889 28.1183 12.9928 28.105 12.5617C28.0917 12.1306 28.2511 11.7489 28.5833 11.4167C28.9167 11.0833 29.3194 10.9167 29.7917 10.9167C30.2639 10.9167 30.6528 11.0833 30.9583 11.4167C32.2083 12.75 33.1944 14.2917 33.9167 16.0417C34.6389 17.7917 35 19.6667 35 21.6667C35 23.1667 34.7917 24.6044 34.375 25.98C33.9583 27.3556 33.375 28.6261 32.625 29.7917C32.3194 30.2639 31.9028 30.5139 31.375 30.5417C30.8472 30.5694 30.3889 30.3889 30 30ZM7.375 29.7917C6.625 28.625 6.04167 27.3539 5.625 25.9783C5.20833 24.6028 5 23.1656 5 21.6667C5 17.5 6.45833 13.9583 9.375 11.0417C12.2917 8.125 15.8333 6.66667 20 6.66667H20.3333L18.8333 5.16667C18.5278 4.86111 18.375 4.47222 18.375 4C18.375 3.52778 18.5278 3.13889 18.8333 2.83333C19.1389 2.52778 19.5278 2.375 20 2.375C20.4722 2.375 20.8611 2.52778 21.1667 2.83333L25.5 7.16667C25.6667 7.33333 25.7844 7.51389 25.8533 7.70833C25.9222 7.90278 25.9572 8.11111 25.9583 8.33333C25.9583 8.55556 25.9233 8.76389 25.8533 8.95833C25.7833 9.15278 25.6656 9.33333 25.5 9.5L21.1667 13.8333C20.8333 14.1667 20.4444 14.3267 20 14.3133C19.5556 14.3 19.1667 14.1261 18.8333 13.7917C18.5 13.4583 18.3333 13.0622 18.3333 12.6033C18.3333 12.1444 18.5 11.7489 18.8333 11.4167L20.25 10H20C16.7778 10 14.0278 11.1389 11.75 13.4167C9.47222 15.6944 8.33333 18.4444 8.33333 21.6667C8.33333 22.8333 8.49333 23.9517 8.81333 25.0217C9.13333 26.0917 9.58444 27.0844 10.1667 28C10.3889 28.3056 10.4794 28.6528 10.4383 29.0417C10.3972 29.4306 10.2511 29.75 10 30C9.61111 30.3889 9.15278 30.5694 8.625 30.5417C8.09722 30.5139 7.68056 30.2639 7.375 29.7917Z" fill="#FF9752"/>
</svg>