<svg xmlns="http://www.w3.org/2000/svg" width="50" height="50" viewBox="0 0 50 50" fill="none">
  <g clip-path="url(#clip0_402_45)">
    <path fill-rule="evenodd" clip-rule="evenodd" d="M25 4.16663C36.5062 4.16663 45.8333 13.4937 45.8333 25C45.8407 29.8081 44.1779 34.4695 41.1291 38.1875L41.1708 38.2333L40.8958 38.4666C38.9421 40.7775 36.5075 42.634 33.7619 43.9064C31.0163 45.1788 28.0261 45.8364 25 45.8333C18.8541 45.8333 13.3333 43.1729 9.52082 38.9437L9.10415 38.4645L8.82915 38.2354L8.87081 38.1854C5.82239 34.468 4.15961 29.8074 4.16665 25C4.16665 13.4937 13.4937 4.16663 25 4.16663ZM25 35.4166C21.125 35.4166 17.6229 36.65 15.0146 38.3437C17.8943 40.5054 21.3991 41.6717 25 41.6666C28.6008 41.6717 32.1056 40.5054 34.9854 38.3437C32.0047 36.4346 28.5397 35.4189 25 35.4166ZM25 8.33329C21.8636 8.3332 18.7908 9.21812 16.1348 10.8863C13.4788 12.5545 11.3475 14.9383 9.98573 17.7636C8.62397 20.589 8.08707 23.7413 8.43675 26.8581C8.78643 29.975 10.0085 32.9299 11.9625 35.3833C15.3396 32.9604 19.9479 31.25 25 31.25C30.0521 31.25 34.6604 32.9604 38.0375 35.3833C39.9915 32.9299 41.2135 29.975 41.5632 26.8581C41.9129 23.7413 41.376 20.589 40.0142 17.7636C38.6525 14.9383 36.5211 12.5545 33.8651 10.8863C31.2092 9.21812 28.1364 8.3332 25 8.33329ZM25 12.5C27.2101 12.5 29.3297 13.3779 30.8925 14.9407C32.4553 16.5035 33.3333 18.6232 33.3333 20.8333C33.3333 23.0434 32.4553 25.163 30.8925 26.7258C29.3297 28.2887 27.2101 29.1666 25 29.1666C22.7898 29.1666 20.6702 28.2887 19.1074 26.7258C17.5446 25.163 16.6666 23.0434 16.6666 20.8333C16.6666 18.6232 17.5446 16.5035 19.1074 14.9407C20.6702 13.3779 22.7898 12.5 25 12.5ZM25 16.6666C23.8949 16.6666 22.8351 17.1056 22.0537 17.887C21.2723 18.6684 20.8333 19.7282 20.8333 20.8333C20.8333 21.9384 21.2723 22.9982 22.0537 23.7796C22.8351 24.561 23.8949 25 25 25C26.105 25 27.1649 24.561 27.9463 23.7796C28.7277 22.9982 29.1666 21.9384 29.1666 20.8333C29.1666 19.7282 28.7277 18.6684 27.9463 17.887C27.1649 17.1056 26.105 16.6666 25 16.6666Z" fill="white"/>
  </g>
  <defs>
    <clipPath id="clip0_402_45">
      <rect width="50" height="50" fill="white"/>
    </clipPath>
  </defs>
</svg>